<svg xmlns="http://www.w3.org/2000/svg" viewBox="0 0 600 400" width="600" height="400">
  <defs>
    <pattern id="wmLc" width="230" height="100" patternTransform="rotate(-28)" patternUnits="userSpaceOnUse">
      <text x="0" y="45" font-size="15" fill="#0b2d48" opacity="0.14" font-family="monospace">SAMPLE DATA — REPLACE</text>
    </pattern>
  </defs>
  <rect width="600" height="400" fill="#e6d99b"/>
  <path d="M0,0 L220,0 L260,90 L140,160 L0,140 Z" fill="#7fae6b"/>
  <path d="M600,0 L400,0 L360,120 L520,180 L600,150 Z" fill="#7fae6b"/>
  <path d="M60,400 L260,400 L300,300 L180,250 L20,300 Z" fill="#5f9653"/>
  <circle cx="300" cy="120" r="34" fill="#9a9a9a"/>
  <circle cx="375" cy="225" r="26" fill="#9a9a9a"/>
  <circle cx="385" cy="320" r="24" fill="#9a9a9a"/>
  <circle cx="280" cy="45" r="18" fill="#9a9a9a"/>
  <path d="M340,60 C360,140 320,240 360,400 L390,400 C360,240 400,140 380,60 Z" fill="#5aa0c9" opacity="0.8"/>
  <rect width="600" height="400" fill="url(#wmLc)"/>
  <text x="16" y="24" font-family="monospace" font-size="14" fill="#0b2d48" opacity="0.85">FRANCE_LCC_2021_2023 — placeholder (categorical)</text>
</svg>
